# xmcd
# 
# Track frame offsets:
#     150
#     39270
#     63375
#     102062
#     118490
#     159837
#     182645
#     211315
#     252682
#     278237
# 
# Disc length: 4059
# 
# Revision: 2
# Processed by: cddbd v1.5.2PL0 Copyright (c) Steve Scherf et al.
# Submitted via: BonkEnc v1.0.6
# 
DISCID=8c0fd90a
DTITLE=Seigen Ono - Septet 2003 Live
DYEAR=2003
DGENRE=Jazz
TTITLE0=Malu
TTITLE1=Bar del Mattatoio
TTITLE2=Some Great Adventure
TTITLE3=Fish Ladder
TTITLE4=The Green Chinese Table
TTITLE5=Einishie
TTITLE6=Maria Ten
TTITLE7=She is She
TTITLE8=Julia Two
TTITLE9=Covenant of the Rainbow
EXTD=
EXTT0=
EXTT1=
EXTT2=
EXTT3=
EXTT4=
EXTT5=
EXTT6=
EXTT7=
EXTT8=
EXTT9=
PLAYORDER=
